<svg xmlns="http://www.w3.org/2000/svg" viewBox="0 0 563 895.83"><defs><style>.cls-1{fill:#b3b3b3;}.cls-2{fill:#f2f2f2;opacity:0.5;}.cls-3{fill:#666;}.cls-4{fill:#999;}.cls-5{fill:#ccc;}</style></defs><title>FAQ</title><g id="Layer_2" data-name="Layer 2"><g id="레이어_1" data-name="레이어 1"><path class="cls-1" d="M16.25,241.68a.77.77,0,0,1-.3-.06.82.82,0,0,1-.53-.77v-3.68H5a2.43,2.43,0,0,1-2.24-2.59v-9.3A2.43,2.43,0,0,1,5,222.69H19.85a2.43,2.43,0,0,1,2.24,2.59v9.3a2.82,2.82,0,0,1-.56,1.7.61.61,0,0,1-.12.16l-4.55,5A.86.86,0,0,1,16.25,241.68ZM5,224.34c-.28,0-.59.4-.59.94v9.3c0,.54.31.94.59.94H16.25a.82.82,0,0,1,.82.82v2.39l3-3.28.09-.12a1.13,1.13,0,0,0,.27-.75v-9.3c0-.54-.31-.94-.59-.94Z"/><rect class="cls-2" x="1.17" y="53.87" width="560.36" height="141.78"/><rect class="cls-2" x="1.17" y="249.87" width="560.36" height="75.78"/><path class="cls-3" d="M5.29,3A4.94,4.94,0,0,0,8,7.46L7.1,8.71a5.23,5.23,0,0,1-2.58-3A5.38,5.38,0,0,1,1.89,9L1,7.72A5.2,5.2,0,0,0,3.71,3V2.38H1.42V1.07H7.49V2.38H5.29Zm6.2,2.54H9.89v5.53H8.3V0H9.89V4.22h1.6Z"/><path class="cls-3" d="M22.27,7.38H18v3.7H16.45V7.38H12.29V6.12h10ZM12.76,4.25C15,4,16.19,2.89,16.34,1.84H13.17V.58h8.19V1.84H18.23c.15,1.05,1.32,2.13,3.56,2.41l-.56,1.23a5.14,5.14,0,0,1-3.95-2.22,5.16,5.16,0,0,1-4,2.22Z"/><path class="cls-3" d="M32.45,6.21v1h3V8.44H29.42V9.68H35.6v1.26H27.85V7.2h3v-1H26.68V5h10V6.21Zm2.95-2H27.9V.38h7.5Zm-1.56-2.6H29.46V3h4.38Z"/><path class="cls-3" d="M47.72,5.38V6.66h-10V5.38ZM40.44,9.56h6.24v1.27H38.85V7.53h1.59Zm6.18-5.3H39V.41h1.59V3h6.08Z"/><path class="cls-3" d="M54.13,7A18.36,18.36,0,0,0,57,6.72l.13,1.33a21.07,21.07,0,0,1-3.81.32h-.77V1.24h1.58Zm7.45-7V11.05H60.07V5.54h-1v5H57.6V.21h1.47V4.26h1V0Z"/><path class="cls-3" d="M73.14,5.25V6.5h-10V5.25H65.4V3.92A1.81,1.81,0,0,1,64.15,2.3c0-1.32,1.56-2.12,4-2.12s4,.8,4,2.12a1.8,1.8,0,0,1-1.28,1.63V5.25ZM72,9.05c0,1.29-1.45,2-3.84,2s-3.82-.73-3.82-2,1.44-2,3.82-2S72,7.77,72,9.05ZM65.79,2.3c0,.6.86.91,2.36.91s2.37-.31,2.37-.91-.86-.92-2.37-.92S65.79,1.68,65.79,2.3Zm4.56,6.75c0-.56-.75-.8-2.23-.8s-2.23.24-2.23.8.76.82,2.23.82S70.35,9.62,70.35,9.05ZM67,5.25h2.31V4.34a10.07,10.07,0,0,1-1.14.06A8.56,8.56,0,0,1,67,4.33Z"/><rect class="cls-4" x="1" y="23.83" width="562" height="1"/><polyline class="cls-2" points="562 404.83 0 404.83 0 356.83 562 356.83"/><path class="cls-3" d="M27.74,379.94c0,1.85.54,3.7,2.14,4.64L29,385.73a4.51,4.51,0,0,1-2-2.7,5.16,5.16,0,0,1-2,3L24,384.83a5.58,5.58,0,0,0,2.19-4.89v-.54H24.43v-1.28h4.92v1.28H27.74ZM30,377.19h1.48v10.36H30v-5.49h-1.4v-1.28H30Zm3.73-.19v11.05h-1.5V377Z"/><path class="cls-3" d="M45.26,382.38v1.26h-10v-1.26h4.18v-1h-3v-3.91H44v3.91h-3v1Zm-8.88,2.06h7.68v3.63H42.47V385.7H36.38Zm1.68-4.33h4.38v-1.43H38.06Z"/><rect class="cls-5" y="404.83" width="562" height="1"/><path class="cls-3" d="M27.74,428.94c0,1.85.54,3.7,2.14,4.64L29,434.73a4.51,4.51,0,0,1-2-2.7,5.16,5.16,0,0,1-2,3L24,433.83a5.58,5.58,0,0,0,2.19-4.89v-.54H24.43v-1.28h4.92v1.28H27.74ZM30,426.19h1.48v10.36H30v-5.49h-1.4v-1.28H30Zm3.73-.19v11.05h-1.5V426Z"/><path class="cls-3" d="M45.26,431.38v1.26h-10v-1.26h4.18v-1h-3v-3.91H44v3.91h-3v1Zm-8.88,2.06h7.68v3.63H42.47V434.7H36.38Zm1.68-4.33h4.38v-1.43H38.06Z"/><rect class="cls-5" y="453.83" width="562" height="1"/><rect class="cls-2" y="454.83" width="562" height="48"/><path class="cls-3" d="M27.74,477.94c0,1.85.54,3.7,2.14,4.64L29,483.73a4.51,4.51,0,0,1-2-2.7,5.16,5.16,0,0,1-2,3L24,482.83a5.58,5.58,0,0,0,2.19-4.89v-.54H24.43v-1.28h4.92v1.28H27.74ZM30,475.19h1.48v10.36H30v-5.49h-1.4v-1.28H30Zm3.73-.19v11.05h-1.5V475Z"/><path class="cls-3" d="M45.26,480.38v1.26h-10v-1.26h4.18v-1h-3v-3.91H44v3.91h-3v1Zm-8.88,2.06h7.68v3.63H42.47V483.7H36.38Zm1.68-4.33h4.38v-1.43H38.06Z"/><rect class="cls-5" y="502.83" width="562" height="1"/><path class="cls-3" d="M27.74,526.94c0,1.85.54,3.7,2.14,4.64L29,532.73a4.51,4.51,0,0,1-2-2.7,5.16,5.16,0,0,1-2,3L24,531.83a5.58,5.58,0,0,0,2.19-4.89v-.54H24.43v-1.28h4.92v1.28H27.74ZM30,524.19h1.48v10.36H30v-5.49h-1.4v-1.28H30Zm3.73-.19v11h-1.5V524Z"/><path class="cls-3" d="M45.26,529.38v1.26h-10v-1.26h4.18v-1h-3v-3.91H44v3.91h-3v1Zm-8.88,2.06h7.68v3.63H42.47V532.7H36.38Zm1.68-4.33h4.38v-1.43H38.06Z"/><rect class="cls-5" y="551.83" width="562" height="1"/><rect class="cls-2" y="552.83" width="562" height="48"/><path class="cls-3" d="M27.74,575.94c0,1.85.54,3.7,2.14,4.64L29,581.73a4.51,4.51,0,0,1-2-2.7,5.16,5.16,0,0,1-2,3L24,580.83a5.58,5.58,0,0,0,2.19-4.89v-.54H24.43v-1.28h4.92v1.28H27.74ZM30,573.19h1.48v10.36H30v-5.49h-1.4v-1.28H30Zm3.73-.19v11h-1.5V573Z"/><path class="cls-3" d="M45.26,578.38v1.26h-10v-1.26h4.18v-1h-3v-3.91H44v3.91h-3v1Zm-8.88,2.06h7.68v3.63H42.47V581.7H36.38Zm1.68-4.33h4.38v-1.43H38.06Z"/><rect class="cls-5" y="600.83" width="562" height="1"/><path class="cls-3" d="M27.74,624.94c0,1.85.54,3.7,2.14,4.64L29,630.73a4.51,4.51,0,0,1-2-2.7,5.16,5.16,0,0,1-2,3L24,629.83a5.58,5.58,0,0,0,2.19-4.89v-.54H24.43v-1.28h4.92v1.28H27.74ZM30,622.19h1.48v10.36H30v-5.49h-1.4v-1.28H30Zm3.73-.19v11h-1.5V622Z"/><path class="cls-3" d="M45.26,627.38v1.26h-10v-1.26h4.18v-1h-3v-3.91H44v3.91h-3v1Zm-8.88,2.06h7.68v3.63H42.47V630.7H36.38Zm1.68-4.33h4.38v-1.43H38.06Z"/><rect class="cls-5" y="649.83" width="562" height="1"/><rect class="cls-2" y="650.83" width="562" height="48"/><path class="cls-3" d="M27.74,673.94c0,1.85.54,3.7,2.14,4.64L29,679.73a4.51,4.51,0,0,1-2-2.7,5.16,5.16,0,0,1-2,3L24,678.83a5.58,5.58,0,0,0,2.19-4.89v-.54H24.43v-1.28h4.92v1.28H27.74ZM30,671.19h1.48v10.36H30v-5.49h-1.4v-1.28H30Zm3.73-.19v11h-1.5V671Z"/><path class="cls-3" d="M45.26,676.38v1.26h-10v-1.26h4.18v-1h-3v-3.91H44v3.91h-3v1Zm-8.88,2.06h7.68v3.63H42.47V679.7H36.38Zm1.68-4.33h4.38v-1.43H38.06Z"/><rect class="cls-5" y="698.83" width="562" height="1"/><path class="cls-3" d="M27.74,722.94c0,1.85.54,3.7,2.14,4.64L29,728.73a4.51,4.51,0,0,1-2-2.7,5.16,5.16,0,0,1-2,3L24,727.83a5.58,5.58,0,0,0,2.19-4.89v-.54H24.43v-1.28h4.92v1.28H27.74ZM30,720.19h1.48v10.36H30v-5.49h-1.4v-1.28H30Zm3.73-.19v11h-1.5V720Z"/><path class="cls-3" d="M45.26,725.38v1.26h-10v-1.26h4.18v-1h-3v-3.91H44v3.91h-3v1Zm-8.88,2.06h7.68v3.63H42.47V728.7H36.38Zm1.68-4.33h4.38v-1.43H38.06Z"/><rect class="cls-5" y="747.83" width="562" height="1"/><rect class="cls-2" y="748.83" width="562" height="48"/><path class="cls-3" d="M27.74,771.94c0,1.85.54,3.7,2.14,4.64L29,777.73a4.51,4.51,0,0,1-2-2.7,5.16,5.16,0,0,1-2,3L24,776.83a5.58,5.58,0,0,0,2.19-4.89v-.54H24.43v-1.28h4.92v1.28H27.74ZM30,769.19h1.48v10.36H30v-5.49h-1.4v-1.28H30Zm3.73-.19v11h-1.5V769Z"/><path class="cls-3" d="M45.26,774.38v1.26h-10v-1.26h4.18v-1h-3v-3.91H44v3.91h-3v1Zm-8.88,2.06h7.68v3.63H42.47V777.7H36.38Zm1.68-4.33h4.38v-1.43H38.06Z"/><rect class="cls-5" y="796.83" width="562" height="1"/><path class="cls-3" d="M27.74,820.94c0,1.85.54,3.7,2.14,4.64L29,826.73a4.51,4.51,0,0,1-2-2.7,5.16,5.16,0,0,1-2,3L24,825.83a5.58,5.58,0,0,0,2.19-4.89v-.54H24.43v-1.28h4.92v1.28H27.74ZM30,818.19h1.48v10.36H30v-5.49h-1.4v-1.28H30Zm3.73-.19v11h-1.5V818Z"/><path class="cls-3" d="M45.26,823.38v1.26h-10v-1.26h4.18v-1h-3v-3.91H44v3.91h-3v1Zm-8.88,2.06h7.68v3.63H42.47V826.7H36.38Zm1.68-4.33h4.38v-1.43H38.06Z"/><rect class="cls-5" y="845.83" width="562" height="1"/><rect class="cls-2" y="846.83" width="562" height="48"/><path class="cls-3" d="M27.74,869.94c0,1.85.54,3.7,2.14,4.64L29,875.73a4.51,4.51,0,0,1-2-2.7,5.16,5.16,0,0,1-2,3L24,874.83a5.58,5.58,0,0,0,2.19-4.89v-.54H24.43v-1.28h4.92v1.28H27.74ZM30,867.19h1.48v10.36H30v-5.49h-1.4v-1.28H30Zm3.73-.19v11h-1.5V867Z"/><path class="cls-3" d="M45.26,872.38v1.26h-10v-1.26h4.18v-1h-3v-3.91H44v3.91h-3v1Zm-8.88,2.06h7.68v3.63H42.47V875.7H36.38Zm1.68-4.33h4.38v-1.43H38.06Z"/><rect class="cls-5" y="894.83" width="562" height="1"/></g></g></svg>