<svg xmlns="http://www.w3.org/2000/svg" viewBox="0 0 562 1088.83"><defs><style>.cls-1{fill:#f2f2f2;opacity:0.5;}.cls-2{fill:#b3b3b3;}.cls-3{fill:#666;}.cls-4{fill:#999;}</style></defs><title>Notices</title><g id="Layer_2" data-name="Layer 2"><g id="레이어_1" data-name="레이어 1"><rect class="cls-1" y="354.83" width="562" height="48"/><rect class="cls-2" x="3.24" y="354.9" width="558.76" height="0.5"/><rect class="cls-1" x="0.17" y="53.87" width="560.36" height="271.96"/><path class="cls-3" d="M27.74,2.94c0,1.85.54,3.7,2.14,4.64L29,8.73A4.51,4.51,0,0,1,27,6a5.16,5.16,0,0,1-2,3L24,7.83a5.58,5.58,0,0,0,2.19-4.89V2.4H24.43V1.12h4.92V2.4H27.74ZM30,.19h1.48V10.55H30V5.06h-1.4V3.78H30ZM33.71,0V11.05h-1.5V0Z"/><path class="cls-3" d="M45.26,5.38V6.64h-10V5.38h4.18v-1h-3V.44H44V4.35h-3v1ZM36.38,7.44h7.68v3.63H42.47V8.7H36.38Zm1.68-4.33h4.38V1.68H38.06Z"/><path class="cls-3" d="M517,9.92c1.84-1.61,2.69-2.77,2.69-3.78A1,1,0,0,0,518.62,5a1.63,1.63,0,0,0-1.22.68L517,5.24a2.23,2.23,0,0,1,1.72-.86,1.61,1.61,0,0,1,1.71,1.73c0,1.17-.92,2.36-2.3,3.67.31,0,.67-.06,1-.06h1.63v.63H517Z"/><path class="cls-3" d="M521.49,7.4c0-2,.71-3,1.83-3s1.82,1,1.82,3-.71,3.06-1.82,3.06S521.49,9.44,521.49,7.4Zm2.94,0c0-1.71-.45-2.43-1.11-2.43s-1.12.72-1.12,2.43.45,2.47,1.12,2.47S524.43,9.13,524.43,7.4Z"/><path class="cls-3" d="M526.24,9.74h1.3V5.37h-1V4.91a3.93,3.93,0,0,0,1.22-.42h.56V9.74h1.18v.61h-3.22Z"/><path class="cls-3" d="M530.34,8.9a1.87,1.87,0,0,1,1.08-1.62v0a1.62,1.62,0,0,1-.79-1.35,1.61,1.61,0,0,1,3.21.06,1.92,1.92,0,0,1-.78,1.41v0a1.72,1.72,0,0,1,1,1.54,1.65,1.65,0,0,1-1.84,1.52A1.68,1.68,0,0,1,530.34,8.9Zm3,0c0-.78-.72-1.08-1.55-1.42a1.61,1.61,0,0,0-.8,1.33,1.12,1.12,0,0,0,1.22,1.08A1,1,0,0,0,533.35,8.92ZM533.22,6a1,1,0,0,0-1-1,.9.9,0,0,0-.93.95c0,.7.63,1,1.32,1.28A1.57,1.57,0,0,0,533.22,6Z"/><path class="cls-3" d="M535,9.9a.53.53,0,1,1,1.06,0,.53.53,0,1,1-1.06,0Z"/><path class="cls-3" d="M537,7.4c0-2,.71-3,1.83-3s1.83,1,1.83,3-.72,3.06-1.83,3.06S537,9.44,537,7.4Zm2.94,0c0-1.71-.44-2.43-1.11-2.43s-1.12.72-1.12,2.43.45,2.47,1.12,2.47S540,9.13,540,7.4Z"/><path class="cls-3" d="M541.47,7.4c0-2,.71-3,1.83-3s1.83,1,1.83,3-.71,3.06-1.83,3.06S541.47,9.44,541.47,7.4Zm2.95,0C544.42,5.69,544,5,543.3,5s-1.12.72-1.12,2.43.45,2.47,1.12,2.47S544.42,9.13,544.42,7.4Z"/><path class="cls-3" d="M546.1,9.9a.53.53,0,1,1,1.06,0,.53.53,0,1,1-1.06,0Z"/><path class="cls-3" d="M548.14,7.4c0-2,.71-3,1.83-3s1.82,1,1.82,3-.71,3.06-1.82,3.06S548.14,9.44,548.14,7.4Zm2.94,0c0-1.71-.45-2.43-1.11-2.43s-1.12.72-1.12,2.43.45,2.47,1.12,2.47S551.08,9.13,551.08,7.4Z"/><path class="cls-3" d="M552.58,7.4c0-2,.71-3,1.83-3s1.82,1,1.82,3-.71,3.06-1.82,3.06S552.58,9.44,552.58,7.4Zm2.94,0c0-1.71-.45-2.43-1.11-2.43s-1.12.72-1.12,2.43.45,2.47,1.12,2.47S555.52,9.13,555.52,7.4Z"/><rect class="cls-4" y="23.83" width="562" height="1"/><path class="cls-3" d="M27.74,377.94c0,1.85.54,3.7,2.14,4.64L29,383.73a4.51,4.51,0,0,1-2-2.7,5.16,5.16,0,0,1-2,3L24,382.83a5.58,5.58,0,0,0,2.19-4.89v-.54H24.43v-1.28h4.92v1.28H27.74ZM30,375.19h1.48v10.36H30v-5.49h-1.4v-1.28H30Zm3.73-.19v11.05h-1.5V375Z"/><path class="cls-3" d="M45.26,380.38v1.26h-10v-1.26h4.18v-1h-3v-3.91H44v3.91h-3v1Zm-8.88,2.06h7.68v3.63H42.47V383.7H36.38Zm1.68-4.33h4.38v-1.43H38.06Z"/><path class="cls-3" d="M507,382.92c1.84-1.61,2.69-2.77,2.69-3.78a1,1,0,0,0-1.08-1.16,1.63,1.63,0,0,0-1.22.68l-.42-.42a2.23,2.23,0,0,1,1.72-.86,1.61,1.61,0,0,1,1.71,1.73c0,1.17-.92,2.36-2.3,3.67.31,0,.67-.06,1-.06h1.63v.63H507Z"/><path class="cls-3" d="M511.49,380.4c0-2,.71-3,1.83-3s1.82,1,1.82,3-.71,3.06-1.82,3.06S511.49,382.44,511.49,380.4Zm2.94,0c0-1.71-.45-2.43-1.11-2.43s-1.12.72-1.12,2.43.45,2.47,1.12,2.47S514.43,382.13,514.43,380.4Z"/><path class="cls-3" d="M516.24,382.74h1.3v-4.37h-1v-.46a3.93,3.93,0,0,0,1.22-.42h.56v5.25h1.18v.61h-3.22Z"/><path class="cls-3" d="M520.34,381.9a1.87,1.87,0,0,1,1.08-1.62v0a1.62,1.62,0,0,1-.79-1.35,1.61,1.61,0,0,1,3.21.06,1.92,1.92,0,0,1-.78,1.41v0a1.72,1.72,0,0,1,1,1.54,1.65,1.65,0,0,1-1.84,1.52A1.68,1.68,0,0,1,520.34,381.9Zm3,0c0-.78-.72-1.08-1.55-1.42a1.61,1.61,0,0,0-.8,1.33,1.12,1.12,0,0,0,1.22,1.08A1,1,0,0,0,523.35,381.92Zm-.13-2.93a1,1,0,0,0-1-1.05.9.9,0,0,0-.93.95c0,.7.63,1,1.32,1.28A1.57,1.57,0,0,0,523.22,379Z"/><path class="cls-3" d="M525,382.9a.53.53,0,1,1,1.06,0,.53.53,0,1,1-1.06,0Z"/><path class="cls-3" d="M527,380.4c0-2,.71-3,1.83-3s1.83,1,1.83,3-.72,3.06-1.83,3.06S527,382.44,527,380.4Zm2.94,0c0-1.71-.44-2.43-1.11-2.43s-1.12.72-1.12,2.43.45,2.47,1.12,2.47S530,382.13,530,380.4Z"/><path class="cls-3" d="M531.47,380.4c0-2,.71-3,1.83-3s1.83,1,1.83,3-.71,3.06-1.83,3.06S531.47,382.44,531.47,380.4Zm2.95,0c0-1.71-.45-2.43-1.12-2.43s-1.12.72-1.12,2.43.45,2.47,1.12,2.47S534.42,382.13,534.42,380.4Z"/><path class="cls-3" d="M536.1,382.9a.53.53,0,1,1,1.06,0,.53.53,0,1,1-1.06,0Z"/><path class="cls-3" d="M538.14,380.4c0-2,.71-3,1.83-3s1.82,1,1.82,3-.71,3.06-1.82,3.06S538.14,382.44,538.14,380.4Zm2.94,0c0-1.71-.45-2.43-1.11-2.43s-1.12.72-1.12,2.43.45,2.47,1.12,2.47S541.08,382.13,541.08,380.4Z"/><path class="cls-3" d="M542.58,380.4c0-2,.71-3,1.83-3s1.82,1,1.82,3-.71,3.06-1.82,3.06S542.58,382.44,542.58,380.4Zm2.94,0c0-1.71-.45-2.43-1.11-2.43s-1.12.72-1.12,2.43.45,2.47,1.12,2.47S545.52,382.13,545.52,380.4Z"/><rect class="cls-2" y="402.83" width="562" height="1"/><path class="cls-3" d="M27.74,426.94c0,1.85.54,3.7,2.14,4.64L29,432.73a4.51,4.51,0,0,1-2-2.7,5.16,5.16,0,0,1-2,3L24,431.83a5.58,5.58,0,0,0,2.19-4.89v-.54H24.43v-1.28h4.92v1.28H27.74ZM30,424.19h1.48v10.36H30v-5.49h-1.4v-1.28H30Zm3.73-.19v11.05h-1.5V424Z"/><path class="cls-3" d="M45.26,429.38v1.26h-10v-1.26h4.18v-1h-3v-3.91H44v3.91h-3v1Zm-8.88,2.06h7.68v3.63H42.47V432.7H36.38Zm1.68-4.33h4.38v-1.43H38.06Z"/><path class="cls-3" d="M507,431.92c1.84-1.61,2.69-2.77,2.69-3.78a1,1,0,0,0-1.08-1.16,1.63,1.63,0,0,0-1.22.68l-.42-.42a2.23,2.23,0,0,1,1.72-.86,1.61,1.61,0,0,1,1.71,1.73c0,1.17-.92,2.36-2.3,3.67.31,0,.67-.06,1-.06h1.63v.63H507Z"/><path class="cls-3" d="M511.49,429.4c0-2,.71-3,1.83-3s1.82,1,1.82,3-.71,3.06-1.82,3.06S511.49,431.44,511.49,429.4Zm2.94,0c0-1.71-.45-2.43-1.11-2.43s-1.12.72-1.12,2.43.45,2.47,1.12,2.47S514.43,431.13,514.43,429.4Z"/><path class="cls-3" d="M516.24,431.74h1.3v-4.37h-1v-.46a3.93,3.93,0,0,0,1.22-.42h.56v5.25h1.18v.61h-3.22Z"/><path class="cls-3" d="M520.34,430.9a1.87,1.87,0,0,1,1.08-1.62v0a1.62,1.62,0,0,1-.79-1.35,1.61,1.61,0,0,1,3.21.06,1.92,1.92,0,0,1-.78,1.41v0a1.72,1.72,0,0,1,1,1.54,1.65,1.65,0,0,1-1.84,1.52A1.68,1.68,0,0,1,520.34,430.9Zm3,0c0-.78-.72-1.08-1.55-1.42a1.61,1.61,0,0,0-.8,1.33,1.12,1.12,0,0,0,1.22,1.08A1,1,0,0,0,523.35,430.92Zm-.13-2.93a1,1,0,0,0-1-1.05.9.9,0,0,0-.93.95c0,.7.63,1,1.32,1.28A1.57,1.57,0,0,0,523.22,428Z"/><path class="cls-3" d="M525,431.9a.53.53,0,1,1,1.06,0,.53.53,0,1,1-1.06,0Z"/><path class="cls-3" d="M527,429.4c0-2,.71-3,1.83-3s1.83,1,1.83,3-.72,3.06-1.83,3.06S527,431.44,527,429.4Zm2.94,0c0-1.71-.44-2.43-1.11-2.43s-1.12.72-1.12,2.43.45,2.47,1.12,2.47S530,431.13,530,429.4Z"/><path class="cls-3" d="M531.47,429.4c0-2,.71-3,1.83-3s1.83,1,1.83,3-.71,3.06-1.83,3.06S531.47,431.44,531.47,429.4Zm2.95,0c0-1.71-.45-2.43-1.12-2.43s-1.12.72-1.12,2.43.45,2.47,1.12,2.47S534.42,431.13,534.42,429.4Z"/><path class="cls-3" d="M536.1,431.9a.53.53,0,1,1,1.06,0,.53.53,0,1,1-1.06,0Z"/><path class="cls-3" d="M538.14,429.4c0-2,.71-3,1.83-3s1.82,1,1.82,3-.71,3.06-1.82,3.06S538.14,431.44,538.14,429.4Zm2.94,0c0-1.71-.45-2.43-1.11-2.43s-1.12.72-1.12,2.43.45,2.47,1.12,2.47S541.08,431.13,541.08,429.4Z"/><path class="cls-3" d="M542.58,429.4c0-2,.71-3,1.83-3s1.82,1,1.82,3-.71,3.06-1.82,3.06S542.58,431.44,542.58,429.4Zm2.94,0c0-1.71-.45-2.43-1.11-2.43s-1.12.72-1.12,2.43.45,2.47,1.12,2.47S545.52,431.13,545.52,429.4Z"/><rect class="cls-2" y="451.83" width="562" height="1"/><rect class="cls-1" y="452.83" width="562" height="48"/><path class="cls-3" d="M27.74,475.94c0,1.85.54,3.7,2.14,4.64L29,481.73a4.51,4.51,0,0,1-2-2.7,5.16,5.16,0,0,1-2,3L24,480.83a5.58,5.58,0,0,0,2.19-4.89v-.54H24.43v-1.28h4.92v1.28H27.74ZM30,473.19h1.48v10.36H30v-5.49h-1.4v-1.28H30Zm3.73-.19v11.05h-1.5V473Z"/><path class="cls-3" d="M45.26,478.38v1.26h-10v-1.26h4.18v-1h-3v-3.91H44v3.91h-3v1Zm-8.88,2.06h7.68v3.63H42.47V481.7H36.38Zm1.68-4.33h4.38v-1.43H38.06Z"/><path class="cls-3" d="M507,480.92c1.84-1.61,2.69-2.77,2.69-3.78a1,1,0,0,0-1.08-1.16,1.63,1.63,0,0,0-1.22.68l-.42-.42a2.23,2.23,0,0,1,1.72-.86,1.61,1.61,0,0,1,1.71,1.73c0,1.17-.92,2.36-2.3,3.67.31,0,.67-.06,1-.06h1.63v.63H507Z"/><path class="cls-3" d="M511.49,478.4c0-2,.71-3,1.83-3s1.82,1,1.82,3-.71,3.06-1.82,3.06S511.49,480.44,511.49,478.4Zm2.94,0c0-1.71-.45-2.43-1.11-2.43s-1.12.72-1.12,2.43.45,2.47,1.12,2.47S514.43,480.13,514.43,478.4Z"/><path class="cls-3" d="M516.24,480.74h1.3v-4.37h-1v-.46a3.93,3.93,0,0,0,1.22-.42h.56v5.25h1.18v.61h-3.22Z"/><path class="cls-3" d="M520.34,479.9a1.87,1.87,0,0,1,1.08-1.62v0a1.62,1.62,0,0,1-.79-1.35,1.61,1.61,0,0,1,3.21.06,1.92,1.92,0,0,1-.78,1.41v0a1.72,1.72,0,0,1,1,1.54,1.65,1.65,0,0,1-1.84,1.52A1.68,1.68,0,0,1,520.34,479.9Zm3,0c0-.78-.72-1.08-1.55-1.42a1.61,1.61,0,0,0-.8,1.33,1.12,1.12,0,0,0,1.22,1.08A1,1,0,0,0,523.35,479.92Zm-.13-2.93a1,1,0,0,0-1-1.05.9.9,0,0,0-.93.95c0,.7.63,1,1.32,1.28A1.57,1.57,0,0,0,523.22,477Z"/><path class="cls-3" d="M525,480.9a.53.53,0,1,1,1.06,0,.53.53,0,1,1-1.06,0Z"/><path class="cls-3" d="M527,478.4c0-2,.71-3,1.83-3s1.83,1,1.83,3-.72,3.06-1.83,3.06S527,480.44,527,478.4Zm2.94,0c0-1.71-.44-2.43-1.11-2.43s-1.12.72-1.12,2.43.45,2.47,1.12,2.47S530,480.13,530,478.4Z"/><path class="cls-3" d="M531.47,478.4c0-2,.71-3,1.83-3s1.83,1,1.83,3-.71,3.06-1.83,3.06S531.47,480.44,531.47,478.4Zm2.95,0c0-1.71-.45-2.43-1.12-2.43s-1.12.72-1.12,2.43.45,2.47,1.12,2.47S534.42,480.13,534.42,478.4Z"/><path class="cls-3" d="M536.1,480.9a.53.53,0,1,1,1.06,0,.53.53,0,1,1-1.06,0Z"/><path class="cls-3" d="M538.14,478.4c0-2,.71-3,1.83-3s1.82,1,1.82,3-.71,3.06-1.82,3.06S538.14,480.44,538.14,478.4Zm2.94,0c0-1.71-.45-2.43-1.11-2.43s-1.12.72-1.12,2.43.45,2.47,1.12,2.47S541.08,480.13,541.08,478.4Z"/><path class="cls-3" d="M542.58,478.4c0-2,.71-3,1.83-3s1.82,1,1.82,3-.71,3.06-1.82,3.06S542.58,480.44,542.58,478.4Zm2.94,0c0-1.71-.45-2.43-1.11-2.43s-1.12.72-1.12,2.43.45,2.47,1.12,2.47S545.52,480.13,545.52,478.4Z"/><rect class="cls-2" y="500.83" width="562" height="1"/><path class="cls-3" d="M27.74,524.94c0,1.85.54,3.7,2.14,4.64L29,530.73a4.51,4.51,0,0,1-2-2.7,5.16,5.16,0,0,1-2,3L24,529.83a5.58,5.58,0,0,0,2.19-4.89v-.54H24.43v-1.28h4.92v1.28H27.74ZM30,522.19h1.48v10.36H30v-5.49h-1.4v-1.28H30Zm3.73-.19v11h-1.5V522Z"/><path class="cls-3" d="M45.26,527.38v1.26h-10v-1.26h4.18v-1h-3v-3.91H44v3.91h-3v1Zm-8.88,2.06h7.68v3.63H42.47V530.7H36.38Zm1.68-4.33h4.38v-1.43H38.06Z"/><path class="cls-3" d="M507,529.92c1.84-1.61,2.69-2.77,2.69-3.78a1,1,0,0,0-1.08-1.16,1.63,1.63,0,0,0-1.22.68l-.42-.42a2.23,2.23,0,0,1,1.72-.86,1.61,1.61,0,0,1,1.71,1.73c0,1.17-.92,2.36-2.3,3.67.31,0,.67-.06,1-.06h1.63v.63H507Z"/><path class="cls-3" d="M511.49,527.4c0-2,.71-3,1.83-3s1.82,1,1.82,3-.71,3.06-1.82,3.06S511.49,529.44,511.49,527.4Zm2.94,0c0-1.71-.45-2.43-1.11-2.43s-1.12.72-1.12,2.43.45,2.47,1.12,2.47S514.43,529.13,514.43,527.4Z"/><path class="cls-3" d="M516.24,529.74h1.3v-4.37h-1v-.46a3.93,3.93,0,0,0,1.22-.42h.56v5.25h1.18v.61h-3.22Z"/><path class="cls-3" d="M520.34,528.9a1.87,1.87,0,0,1,1.08-1.62v0a1.62,1.62,0,0,1-.79-1.35,1.61,1.61,0,0,1,3.21.06,1.92,1.92,0,0,1-.78,1.41v0a1.72,1.72,0,0,1,1,1.54,1.65,1.65,0,0,1-1.84,1.52A1.68,1.68,0,0,1,520.34,528.9Zm3,0c0-.78-.72-1.08-1.55-1.42a1.61,1.61,0,0,0-.8,1.33,1.12,1.12,0,0,0,1.22,1.08A1,1,0,0,0,523.35,528.92Zm-.13-2.93a1,1,0,0,0-1-1,.9.9,0,0,0-.93.95c0,.7.63,1,1.32,1.28A1.57,1.57,0,0,0,523.22,526Z"/><path class="cls-3" d="M525,529.9a.53.53,0,1,1,1.06,0,.53.53,0,1,1-1.06,0Z"/><path class="cls-3" d="M527,527.4c0-2,.71-3,1.83-3s1.83,1,1.83,3-.72,3.06-1.83,3.06S527,529.44,527,527.4Zm2.94,0c0-1.71-.44-2.43-1.11-2.43s-1.12.72-1.12,2.43.45,2.47,1.12,2.47S530,529.13,530,527.4Z"/><path class="cls-3" d="M531.47,527.4c0-2,.71-3,1.83-3s1.83,1,1.83,3-.71,3.06-1.83,3.06S531.47,529.44,531.47,527.4Zm2.95,0c0-1.71-.45-2.43-1.12-2.43s-1.12.72-1.12,2.43.45,2.47,1.12,2.47S534.42,529.13,534.42,527.4Z"/><path class="cls-3" d="M536.1,529.9a.53.53,0,1,1,1.06,0,.53.53,0,1,1-1.06,0Z"/><path class="cls-3" d="M538.14,527.4c0-2,.71-3,1.83-3s1.82,1,1.82,3-.71,3.06-1.82,3.06S538.14,529.44,538.14,527.4Zm2.94,0c0-1.71-.45-2.43-1.11-2.43s-1.12.72-1.12,2.43.45,2.47,1.12,2.47S541.08,529.13,541.08,527.4Z"/><path class="cls-3" d="M542.58,527.4c0-2,.71-3,1.83-3s1.82,1,1.82,3-.71,3.06-1.82,3.06S542.58,529.44,542.58,527.4Zm2.94,0c0-1.71-.45-2.43-1.11-2.43s-1.12.72-1.12,2.43.45,2.47,1.12,2.47S545.52,529.13,545.52,527.4Z"/><rect class="cls-2" y="549.83" width="562" height="1"/><rect class="cls-1" y="550.83" width="562" height="48"/><path class="cls-3" d="M27.74,573.94c0,1.85.54,3.7,2.14,4.64L29,579.73a4.51,4.51,0,0,1-2-2.7,5.16,5.16,0,0,1-2,3L24,578.83a5.58,5.58,0,0,0,2.19-4.89v-.54H24.43v-1.28h4.92v1.28H27.74ZM30,571.19h1.48v10.36H30v-5.49h-1.4v-1.28H30Zm3.73-.19v11h-1.5V571Z"/><path class="cls-3" d="M45.26,576.38v1.26h-10v-1.26h4.18v-1h-3v-3.91H44v3.91h-3v1Zm-8.88,2.06h7.68v3.63H42.47V579.7H36.38Zm1.68-4.33h4.38v-1.43H38.06Z"/><path class="cls-3" d="M507,578.92c1.84-1.61,2.69-2.77,2.69-3.78a1,1,0,0,0-1.08-1.16,1.63,1.63,0,0,0-1.22.68l-.42-.42a2.23,2.23,0,0,1,1.72-.86,1.61,1.61,0,0,1,1.71,1.73c0,1.17-.92,2.36-2.3,3.67.31,0,.67-.06,1-.06h1.63v.63H507Z"/><path class="cls-3" d="M511.49,576.4c0-2,.71-3,1.83-3s1.82,1,1.82,3-.71,3.06-1.82,3.06S511.49,578.44,511.49,576.4Zm2.94,0c0-1.71-.45-2.43-1.11-2.43s-1.12.72-1.12,2.43.45,2.47,1.12,2.47S514.43,578.13,514.43,576.4Z"/><path class="cls-3" d="M516.24,578.74h1.3v-4.37h-1v-.46a3.93,3.93,0,0,0,1.22-.42h.56v5.25h1.18v.61h-3.22Z"/><path class="cls-3" d="M520.34,577.9a1.87,1.87,0,0,1,1.08-1.62v0a1.62,1.62,0,0,1-.79-1.35,1.61,1.61,0,0,1,3.21.06,1.92,1.92,0,0,1-.78,1.41v0a1.72,1.72,0,0,1,1,1.54,1.65,1.65,0,0,1-1.84,1.52A1.68,1.68,0,0,1,520.34,577.9Zm3,0c0-.78-.72-1.08-1.55-1.42a1.61,1.61,0,0,0-.8,1.33,1.12,1.12,0,0,0,1.22,1.08A1,1,0,0,0,523.35,577.92Zm-.13-2.93a1,1,0,0,0-1-1,.9.9,0,0,0-.93.95c0,.7.63,1,1.32,1.28A1.57,1.57,0,0,0,523.22,575Z"/><path class="cls-3" d="M525,578.9a.53.53,0,1,1,1.06,0,.53.53,0,1,1-1.06,0Z"/><path class="cls-3" d="M527,576.4c0-2,.71-3,1.83-3s1.83,1,1.83,3-.72,3.06-1.83,3.06S527,578.44,527,576.4Zm2.94,0c0-1.71-.44-2.43-1.11-2.43s-1.12.72-1.12,2.43.45,2.47,1.12,2.47S530,578.13,530,576.4Z"/><path class="cls-3" d="M531.47,576.4c0-2,.71-3,1.83-3s1.83,1,1.83,3-.71,3.06-1.83,3.06S531.47,578.44,531.47,576.4Zm2.95,0c0-1.71-.45-2.43-1.12-2.43s-1.12.72-1.12,2.43.45,2.47,1.12,2.47S534.42,578.13,534.42,576.4Z"/><path class="cls-3" d="M536.1,578.9a.53.53,0,1,1,1.06,0,.53.53,0,1,1-1.06,0Z"/><path class="cls-3" d="M538.14,576.4c0-2,.71-3,1.83-3s1.82,1,1.82,3-.71,3.06-1.82,3.06S538.14,578.44,538.14,576.4Zm2.94,0c0-1.71-.45-2.43-1.11-2.43s-1.12.72-1.12,2.43.45,2.47,1.12,2.47S541.08,578.13,541.08,576.4Z"/><path class="cls-3" d="M542.58,576.4c0-2,.71-3,1.83-3s1.82,1,1.82,3-.71,3.06-1.82,3.06S542.58,578.44,542.58,576.4Zm2.94,0c0-1.71-.45-2.43-1.11-2.43s-1.12.72-1.12,2.43.45,2.47,1.12,2.47S545.52,578.13,545.52,576.4Z"/><rect class="cls-2" y="598.83" width="562" height="1"/><path class="cls-3" d="M27.74,622.94c0,1.85.54,3.7,2.14,4.64L29,628.73a4.51,4.51,0,0,1-2-2.7,5.16,5.16,0,0,1-2,3L24,627.83a5.58,5.58,0,0,0,2.19-4.89v-.54H24.43v-1.28h4.92v1.28H27.74ZM30,620.19h1.48v10.36H30v-5.49h-1.4v-1.28H30Zm3.73-.19v11h-1.5V620Z"/><path class="cls-3" d="M45.26,625.38v1.26h-10v-1.26h4.18v-1h-3v-3.91H44v3.91h-3v1Zm-8.88,2.06h7.68v3.63H42.47V628.7H36.38Zm1.68-4.33h4.38v-1.43H38.06Z"/><path class="cls-3" d="M507,627.92c1.84-1.61,2.69-2.77,2.69-3.78a1,1,0,0,0-1.08-1.16,1.63,1.63,0,0,0-1.22.68l-.42-.42a2.23,2.23,0,0,1,1.72-.86,1.61,1.61,0,0,1,1.71,1.73c0,1.17-.92,2.36-2.3,3.67.31,0,.67-.06,1-.06h1.63v.63H507Z"/><path class="cls-3" d="M511.49,625.4c0-2,.71-3,1.83-3s1.82,1,1.82,3-.71,3.06-1.82,3.06S511.49,627.44,511.49,625.4Zm2.94,0c0-1.71-.45-2.43-1.11-2.43s-1.12.72-1.12,2.43.45,2.47,1.12,2.47S514.43,627.13,514.43,625.4Z"/><path class="cls-3" d="M516.24,627.74h1.3v-4.37h-1v-.46a3.93,3.93,0,0,0,1.22-.42h.56v5.25h1.18v.61h-3.22Z"/><path class="cls-3" d="M520.34,626.9a1.87,1.87,0,0,1,1.08-1.62v0a1.62,1.62,0,0,1-.79-1.35,1.61,1.61,0,0,1,3.21.06,1.92,1.92,0,0,1-.78,1.41v0a1.72,1.72,0,0,1,1,1.54,1.65,1.65,0,0,1-1.84,1.52A1.68,1.68,0,0,1,520.34,626.9Zm3,0c0-.78-.72-1.08-1.55-1.42a1.61,1.61,0,0,0-.8,1.33,1.12,1.12,0,0,0,1.22,1.08A1,1,0,0,0,523.35,626.92Zm-.13-2.93a1,1,0,0,0-1-1,.9.9,0,0,0-.93.95c0,.7.63,1,1.32,1.28A1.57,1.57,0,0,0,523.22,624Z"/><path class="cls-3" d="M525,627.9a.53.53,0,1,1,1.06,0,.53.53,0,1,1-1.06,0Z"/><path class="cls-3" d="M527,625.4c0-2,.71-3,1.83-3s1.83,1,1.83,3-.72,3.06-1.83,3.06S527,627.44,527,625.4Zm2.94,0c0-1.71-.44-2.43-1.11-2.43s-1.12.72-1.12,2.43.45,2.47,1.12,2.47S530,627.13,530,625.4Z"/><path class="cls-3" d="M531.47,625.4c0-2,.71-3,1.83-3s1.83,1,1.83,3-.71,3.06-1.83,3.06S531.47,627.44,531.47,625.4Zm2.95,0c0-1.71-.45-2.43-1.12-2.43s-1.12.72-1.12,2.43.45,2.47,1.12,2.47S534.42,627.13,534.42,625.4Z"/><path class="cls-3" d="M536.1,627.9a.53.53,0,1,1,1.06,0,.53.53,0,1,1-1.06,0Z"/><path class="cls-3" d="M538.14,625.4c0-2,.71-3,1.83-3s1.82,1,1.82,3-.71,3.06-1.82,3.06S538.14,627.44,538.14,625.4Zm2.94,0c0-1.71-.45-2.43-1.11-2.43s-1.12.72-1.12,2.43.45,2.47,1.12,2.47S541.08,627.13,541.08,625.4Z"/><path class="cls-3" d="M542.58,625.4c0-2,.71-3,1.83-3s1.82,1,1.82,3-.71,3.06-1.82,3.06S542.58,627.44,542.58,625.4Zm2.94,0c0-1.71-.45-2.43-1.11-2.43s-1.12.72-1.12,2.43.45,2.47,1.12,2.47S545.52,627.13,545.52,625.4Z"/><rect class="cls-2" y="647.83" width="562" height="1"/><rect class="cls-1" y="648.83" width="562" height="48"/><path class="cls-3" d="M27.74,671.94c0,1.85.54,3.7,2.14,4.64L29,677.73a4.51,4.51,0,0,1-2-2.7,5.16,5.16,0,0,1-2,3L24,676.83a5.58,5.58,0,0,0,2.19-4.89v-.54H24.43v-1.28h4.92v1.28H27.74ZM30,669.19h1.48v10.36H30v-5.49h-1.4v-1.28H30Zm3.73-.19v11h-1.5V669Z"/><path class="cls-3" d="M45.26,674.38v1.26h-10v-1.26h4.18v-1h-3v-3.91H44v3.91h-3v1Zm-8.88,2.06h7.68v3.63H42.47V677.7H36.38Zm1.68-4.33h4.38v-1.43H38.06Z"/><path class="cls-3" d="M507,676.92c1.84-1.61,2.69-2.77,2.69-3.78a1,1,0,0,0-1.08-1.16,1.63,1.63,0,0,0-1.22.68l-.42-.42a2.23,2.23,0,0,1,1.72-.86,1.61,1.61,0,0,1,1.71,1.73c0,1.17-.92,2.36-2.3,3.67.31,0,.67-.06,1-.06h1.63v.63H507Z"/><path class="cls-3" d="M511.49,674.4c0-2,.71-3,1.83-3s1.82,1,1.82,3-.71,3.06-1.82,3.06S511.49,676.44,511.49,674.4Zm2.94,0c0-1.71-.45-2.43-1.11-2.43s-1.12.72-1.12,2.43.45,2.47,1.12,2.47S514.43,676.13,514.43,674.4Z"/><path class="cls-3" d="M516.24,676.74h1.3v-4.37h-1v-.46a3.93,3.93,0,0,0,1.22-.42h.56v5.25h1.18v.61h-3.22Z"/><path class="cls-3" d="M520.34,675.9a1.87,1.87,0,0,1,1.08-1.62v0a1.62,1.62,0,0,1-.79-1.35,1.61,1.61,0,0,1,3.21.06,1.92,1.92,0,0,1-.78,1.41v0a1.72,1.72,0,0,1,1,1.54,1.65,1.65,0,0,1-1.84,1.52A1.68,1.68,0,0,1,520.34,675.9Zm3,0c0-.78-.72-1.08-1.55-1.42a1.61,1.61,0,0,0-.8,1.33,1.12,1.12,0,0,0,1.22,1.08A1,1,0,0,0,523.35,675.92Zm-.13-2.93a1,1,0,0,0-1-1,.9.9,0,0,0-.93.95c0,.7.63,1,1.32,1.28A1.57,1.57,0,0,0,523.22,673Z"/><path class="cls-3" d="M525,676.9a.53.53,0,1,1,1.06,0,.53.53,0,1,1-1.06,0Z"/><path class="cls-3" d="M527,674.4c0-2,.71-3,1.83-3s1.83,1,1.83,3-.72,3.06-1.83,3.06S527,676.44,527,674.4Zm2.94,0c0-1.71-.44-2.43-1.11-2.43s-1.12.72-1.12,2.43.45,2.47,1.12,2.47S530,676.13,530,674.4Z"/><path class="cls-3" d="M531.47,674.4c0-2,.71-3,1.83-3s1.83,1,1.83,3-.71,3.06-1.83,3.06S531.47,676.44,531.47,674.4Zm2.95,0c0-1.71-.45-2.43-1.12-2.43s-1.12.72-1.12,2.43.45,2.47,1.12,2.47S534.42,676.13,534.42,674.4Z"/><path class="cls-3" d="M536.1,676.9a.53.53,0,1,1,1.06,0,.53.53,0,1,1-1.06,0Z"/><path class="cls-3" d="M538.14,674.4c0-2,.71-3,1.83-3s1.82,1,1.82,3-.71,3.06-1.82,3.06S538.14,676.44,538.14,674.4Zm2.94,0c0-1.71-.45-2.43-1.11-2.43s-1.12.72-1.12,2.43.45,2.47,1.12,2.47S541.08,676.13,541.08,674.4Z"/><path class="cls-3" d="M542.58,674.4c0-2,.71-3,1.83-3s1.82,1,1.82,3-.71,3.06-1.82,3.06S542.58,676.44,542.58,674.4Zm2.94,0c0-1.71-.45-2.43-1.11-2.43s-1.12.72-1.12,2.43.45,2.47,1.12,2.47S545.52,676.13,545.52,674.4Z"/><rect class="cls-2" y="696.83" width="562" height="1"/><path class="cls-3" d="M27.74,720.94c0,1.85.54,3.7,2.14,4.64L29,726.73a4.51,4.51,0,0,1-2-2.7,5.16,5.16,0,0,1-2,3L24,725.83a5.58,5.58,0,0,0,2.19-4.89v-.54H24.43v-1.28h4.92v1.28H27.74ZM30,718.19h1.48v10.36H30v-5.49h-1.4v-1.28H30Zm3.73-.19v11h-1.5V718Z"/><path class="cls-3" d="M45.26,723.38v1.26h-10v-1.26h4.18v-1h-3v-3.91H44v3.91h-3v1Zm-8.88,2.06h7.68v3.63H42.47V726.7H36.38Zm1.68-4.33h4.38v-1.43H38.06Z"/><path class="cls-3" d="M507,725.92c1.84-1.61,2.69-2.77,2.69-3.78a1,1,0,0,0-1.08-1.16,1.63,1.63,0,0,0-1.22.68l-.42-.42a2.23,2.23,0,0,1,1.72-.86,1.61,1.61,0,0,1,1.71,1.73c0,1.17-.92,2.36-2.3,3.67.31,0,.67-.06,1-.06h1.63v.63H507Z"/><path class="cls-3" d="M511.49,723.4c0-2,.71-3,1.83-3s1.82,1,1.82,3-.71,3.06-1.82,3.06S511.49,725.44,511.49,723.4Zm2.94,0c0-1.71-.45-2.43-1.11-2.43s-1.12.72-1.12,2.43.45,2.47,1.12,2.47S514.43,725.13,514.43,723.4Z"/><path class="cls-3" d="M516.24,725.74h1.3v-4.37h-1v-.46a3.93,3.93,0,0,0,1.22-.42h.56v5.25h1.18v.61h-3.22Z"/><path class="cls-3" d="M520.34,724.9a1.87,1.87,0,0,1,1.08-1.62v0a1.62,1.62,0,0,1-.79-1.35,1.61,1.61,0,0,1,3.21.06,1.92,1.92,0,0,1-.78,1.41v0a1.72,1.72,0,0,1,1,1.54,1.65,1.65,0,0,1-1.84,1.52A1.68,1.68,0,0,1,520.34,724.9Zm3,0c0-.78-.72-1.08-1.55-1.42a1.61,1.61,0,0,0-.8,1.33,1.12,1.12,0,0,0,1.22,1.08A1,1,0,0,0,523.35,724.92Zm-.13-2.93a1,1,0,0,0-1-1,.9.9,0,0,0-.93.95c0,.7.63,1,1.32,1.28A1.57,1.57,0,0,0,523.22,722Z"/><path class="cls-3" d="M525,725.9a.53.53,0,1,1,1.06,0,.53.53,0,1,1-1.06,0Z"/><path class="cls-3" d="M527,723.4c0-2,.71-3,1.83-3s1.83,1,1.83,3-.72,3.06-1.83,3.06S527,725.44,527,723.4Zm2.94,0c0-1.71-.44-2.43-1.11-2.43s-1.12.72-1.12,2.43.45,2.47,1.12,2.47S530,725.13,530,723.4Z"/><path class="cls-3" d="M531.47,723.4c0-2,.71-3,1.83-3s1.83,1,1.83,3-.71,3.06-1.83,3.06S531.47,725.44,531.47,723.4Zm2.95,0c0-1.71-.45-2.43-1.12-2.43s-1.12.72-1.12,2.43.45,2.47,1.12,2.47S534.42,725.13,534.42,723.4Z"/><path class="cls-3" d="M536.1,725.9a.53.53,0,1,1,1.06,0,.53.53,0,1,1-1.06,0Z"/><path class="cls-3" d="M538.14,723.4c0-2,.71-3,1.83-3s1.82,1,1.82,3-.71,3.06-1.82,3.06S538.14,725.44,538.14,723.4Zm2.94,0c0-1.71-.45-2.43-1.11-2.43s-1.12.72-1.12,2.43.45,2.47,1.12,2.47S541.08,725.13,541.08,723.4Z"/><path class="cls-3" d="M542.58,723.4c0-2,.71-3,1.83-3s1.82,1,1.82,3-.71,3.06-1.82,3.06S542.58,725.44,542.58,723.4Zm2.94,0c0-1.71-.45-2.43-1.11-2.43s-1.12.72-1.12,2.43.45,2.47,1.12,2.47S545.52,725.13,545.52,723.4Z"/><rect class="cls-2" y="745.83" width="562" height="1"/><rect class="cls-1" y="746.83" width="562" height="48"/><path class="cls-3" d="M27.74,769.94c0,1.85.54,3.7,2.14,4.64L29,775.73a4.51,4.51,0,0,1-2-2.7,5.16,5.16,0,0,1-2,3L24,774.83a5.58,5.58,0,0,0,2.19-4.89v-.54H24.43v-1.28h4.92v1.28H27.74ZM30,767.19h1.48v10.36H30v-5.49h-1.4v-1.28H30Zm3.73-.19v11h-1.5V767Z"/><path class="cls-3" d="M45.26,772.38v1.26h-10v-1.26h4.18v-1h-3v-3.91H44v3.91h-3v1Zm-8.88,2.06h7.68v3.63H42.47V775.7H36.38Zm1.68-4.33h4.38v-1.43H38.06Z"/><path class="cls-3" d="M507,774.92c1.84-1.61,2.69-2.77,2.69-3.78a1,1,0,0,0-1.08-1.16,1.63,1.63,0,0,0-1.22.68l-.42-.42a2.23,2.23,0,0,1,1.72-.86,1.61,1.61,0,0,1,1.71,1.73c0,1.17-.92,2.36-2.3,3.67.31,0,.67-.06,1-.06h1.63v.63H507Z"/><path class="cls-3" d="M511.49,772.4c0-2,.71-3,1.83-3s1.82,1,1.82,3-.71,3.06-1.82,3.06S511.49,774.44,511.49,772.4Zm2.94,0c0-1.71-.45-2.43-1.11-2.43s-1.12.72-1.12,2.43.45,2.47,1.12,2.47S514.43,774.13,514.43,772.4Z"/><path class="cls-3" d="M516.24,774.74h1.3v-4.37h-1v-.46a3.93,3.93,0,0,0,1.22-.42h.56v5.25h1.18v.61h-3.22Z"/><path class="cls-3" d="M520.34,773.9a1.87,1.87,0,0,1,1.08-1.62v0a1.62,1.62,0,0,1-.79-1.35,1.61,1.61,0,0,1,3.21.06,1.92,1.92,0,0,1-.78,1.41v0a1.72,1.72,0,0,1,1,1.54,1.65,1.65,0,0,1-1.84,1.52A1.68,1.68,0,0,1,520.34,773.9Zm3,0c0-.78-.72-1.08-1.55-1.42a1.61,1.61,0,0,0-.8,1.33,1.12,1.12,0,0,0,1.22,1.08A1,1,0,0,0,523.35,773.92Zm-.13-2.93a1,1,0,0,0-1-1,.9.9,0,0,0-.93.95c0,.7.63,1,1.32,1.28A1.57,1.57,0,0,0,523.22,771Z"/><path class="cls-3" d="M525,774.9a.53.53,0,1,1,1.06,0,.53.53,0,1,1-1.06,0Z"/><path class="cls-3" d="M527,772.4c0-2,.71-3,1.83-3s1.83,1,1.83,3-.72,3.06-1.83,3.06S527,774.44,527,772.4Zm2.94,0c0-1.71-.44-2.43-1.11-2.43s-1.12.72-1.12,2.43.45,2.47,1.12,2.47S530,774.13,530,772.4Z"/><path class="cls-3" d="M531.47,772.4c0-2,.71-3,1.83-3s1.83,1,1.83,3-.71,3.06-1.83,3.06S531.47,774.44,531.47,772.4Zm2.95,0c0-1.71-.45-2.43-1.12-2.43s-1.12.72-1.12,2.43.45,2.47,1.12,2.47S534.42,774.13,534.42,772.4Z"/><path class="cls-3" d="M536.1,774.9a.53.53,0,1,1,1.06,0,.53.53,0,1,1-1.06,0Z"/><path class="cls-3" d="M538.14,772.4c0-2,.71-3,1.83-3s1.82,1,1.82,3-.71,3.06-1.82,3.06S538.14,774.44,538.14,772.4Zm2.94,0c0-1.71-.45-2.43-1.11-2.43s-1.12.72-1.12,2.43.45,2.47,1.12,2.47S541.08,774.13,541.08,772.4Z"/><path class="cls-3" d="M542.58,772.4c0-2,.71-3,1.83-3s1.82,1,1.82,3-.71,3.06-1.82,3.06S542.58,774.44,542.58,772.4Zm2.94,0c0-1.71-.45-2.43-1.11-2.43s-1.12.72-1.12,2.43.45,2.47,1.12,2.47S545.52,774.13,545.52,772.4Z"/><rect class="cls-2" y="794.83" width="562" height="1"/><path class="cls-3" d="M27.74,818.94c0,1.85.54,3.7,2.14,4.64L29,824.73a4.51,4.51,0,0,1-2-2.7,5.16,5.16,0,0,1-2,3L24,823.83a5.58,5.58,0,0,0,2.19-4.89v-.54H24.43v-1.28h4.92v1.28H27.74ZM30,816.19h1.48v10.36H30v-5.49h-1.4v-1.28H30Zm3.73-.19v11h-1.5V816Z"/><path class="cls-3" d="M45.26,821.38v1.26h-10v-1.26h4.18v-1h-3v-3.91H44v3.91h-3v1Zm-8.88,2.06h7.68v3.63H42.47V824.7H36.38Zm1.68-4.33h4.38v-1.43H38.06Z"/><path class="cls-3" d="M507,823.92c1.84-1.61,2.69-2.77,2.69-3.78a1,1,0,0,0-1.08-1.16,1.63,1.63,0,0,0-1.22.68l-.42-.42a2.23,2.23,0,0,1,1.72-.86,1.61,1.61,0,0,1,1.71,1.73c0,1.17-.92,2.36-2.3,3.67.31,0,.67-.06,1-.06h1.63v.63H507Z"/><path class="cls-3" d="M511.49,821.4c0-2,.71-3,1.83-3s1.82,1,1.82,3-.71,3.06-1.82,3.06S511.49,823.44,511.49,821.4Zm2.94,0c0-1.71-.45-2.43-1.11-2.43s-1.12.72-1.12,2.43.45,2.47,1.12,2.47S514.43,823.13,514.43,821.4Z"/><path class="cls-3" d="M516.24,823.74h1.3v-4.37h-1v-.46a3.93,3.93,0,0,0,1.22-.42h.56v5.25h1.18v.61h-3.22Z"/><path class="cls-3" d="M520.34,822.9a1.87,1.87,0,0,1,1.08-1.62v0a1.62,1.62,0,0,1-.79-1.35,1.61,1.61,0,0,1,3.21.06,1.92,1.92,0,0,1-.78,1.41v0a1.72,1.72,0,0,1,1,1.54,1.65,1.65,0,0,1-1.84,1.52A1.68,1.68,0,0,1,520.34,822.9Zm3,0c0-.78-.72-1.08-1.55-1.42a1.61,1.61,0,0,0-.8,1.33,1.12,1.12,0,0,0,1.22,1.08A1,1,0,0,0,523.35,822.92Zm-.13-2.93a1,1,0,0,0-1-1,.9.9,0,0,0-.93.95c0,.7.63,1,1.32,1.28A1.57,1.57,0,0,0,523.22,820Z"/><path class="cls-3" d="M525,823.9a.53.53,0,1,1,1.06,0,.53.53,0,1,1-1.06,0Z"/><path class="cls-3" d="M527,821.4c0-2,.71-3,1.83-3s1.83,1,1.83,3-.72,3.06-1.83,3.06S527,823.44,527,821.4Zm2.94,0c0-1.71-.44-2.43-1.11-2.43s-1.12.72-1.12,2.43.45,2.47,1.12,2.47S530,823.13,530,821.4Z"/><path class="cls-3" d="M531.47,821.4c0-2,.71-3,1.83-3s1.83,1,1.83,3-.71,3.06-1.83,3.06S531.47,823.44,531.47,821.4Zm2.95,0c0-1.71-.45-2.43-1.12-2.43s-1.12.72-1.12,2.43.45,2.47,1.12,2.47S534.42,823.13,534.42,821.4Z"/><path class="cls-3" d="M536.1,823.9a.53.53,0,1,1,1.06,0,.53.53,0,1,1-1.06,0Z"/><path class="cls-3" d="M538.14,821.4c0-2,.71-3,1.83-3s1.82,1,1.82,3-.71,3.06-1.82,3.06S538.14,823.44,538.14,821.4Zm2.94,0c0-1.71-.45-2.43-1.11-2.43s-1.12.72-1.12,2.43.45,2.47,1.12,2.47S541.08,823.13,541.08,821.4Z"/><path class="cls-3" d="M542.58,821.4c0-2,.71-3,1.83-3s1.82,1,1.82,3-.71,3.06-1.82,3.06S542.58,823.44,542.58,821.4Zm2.94,0c0-1.71-.45-2.43-1.11-2.43s-1.12.72-1.12,2.43.45,2.47,1.12,2.47S545.52,823.13,545.52,821.4Z"/><rect class="cls-2" y="843.83" width="562" height="1"/><rect class="cls-1" y="844.83" width="562" height="48"/><path class="cls-3" d="M27.74,867.94c0,1.85.54,3.7,2.14,4.64L29,873.73a4.51,4.51,0,0,1-2-2.7,5.16,5.16,0,0,1-2,3L24,872.83a5.58,5.58,0,0,0,2.19-4.89v-.54H24.43v-1.28h4.92v1.28H27.74ZM30,865.19h1.48v10.36H30v-5.49h-1.4v-1.28H30Zm3.73-.19v11h-1.5V865Z"/><path class="cls-3" d="M45.26,870.38v1.26h-10v-1.26h4.18v-1h-3v-3.91H44v3.91h-3v1Zm-8.88,2.06h7.68v3.63H42.47V873.7H36.38Zm1.68-4.33h4.38v-1.43H38.06Z"/><path class="cls-3" d="M507,872.92c1.84-1.61,2.69-2.77,2.69-3.78a1,1,0,0,0-1.08-1.16,1.63,1.63,0,0,0-1.22.68l-.42-.42a2.23,2.23,0,0,1,1.72-.86,1.61,1.61,0,0,1,1.71,1.73c0,1.17-.92,2.36-2.3,3.67.31,0,.67-.06,1-.06h1.63v.63H507Z"/><path class="cls-3" d="M511.49,870.4c0-2,.71-3,1.83-3s1.82,1,1.82,3-.71,3.06-1.82,3.06S511.49,872.44,511.49,870.4Zm2.94,0c0-1.71-.45-2.43-1.11-2.43s-1.12.72-1.12,2.43.45,2.47,1.12,2.47S514.43,872.13,514.43,870.4Z"/><path class="cls-3" d="M516.24,872.74h1.3v-4.37h-1v-.46a3.93,3.93,0,0,0,1.22-.42h.56v5.25h1.18v.61h-3.22Z"/><path class="cls-3" d="M520.34,871.9a1.87,1.87,0,0,1,1.08-1.62v0a1.62,1.62,0,0,1-.79-1.35,1.61,1.61,0,0,1,3.21.06,1.92,1.92,0,0,1-.78,1.41v0a1.72,1.72,0,0,1,1,1.54,1.65,1.65,0,0,1-1.84,1.52A1.68,1.68,0,0,1,520.34,871.9Zm3,0c0-.78-.72-1.08-1.55-1.42a1.61,1.61,0,0,0-.8,1.33,1.12,1.12,0,0,0,1.22,1.08A1,1,0,0,0,523.35,871.92Zm-.13-2.93a1,1,0,0,0-1-1,.9.9,0,0,0-.93.95c0,.7.63,1,1.32,1.28A1.57,1.57,0,0,0,523.22,869Z"/><path class="cls-3" d="M525,872.9a.53.53,0,1,1,1.06,0,.53.53,0,1,1-1.06,0Z"/><path class="cls-3" d="M527,870.4c0-2,.71-3,1.83-3s1.83,1,1.83,3-.72,3.06-1.83,3.06S527,872.44,527,870.4Zm2.94,0c0-1.71-.44-2.43-1.11-2.43s-1.12.72-1.12,2.43.45,2.47,1.12,2.47S530,872.13,530,870.4Z"/><path class="cls-3" d="M531.47,870.4c0-2,.71-3,1.83-3s1.83,1,1.83,3-.71,3.06-1.83,3.06S531.47,872.44,531.47,870.4Zm2.95,0c0-1.71-.45-2.43-1.12-2.43s-1.12.72-1.12,2.43.45,2.47,1.12,2.47S534.42,872.13,534.42,870.4Z"/><path class="cls-3" d="M536.1,872.9a.53.53,0,1,1,1.06,0,.53.53,0,1,1-1.06,0Z"/><path class="cls-3" d="M538.14,870.4c0-2,.71-3,1.83-3s1.82,1,1.82,3-.71,3.06-1.82,3.06S538.14,872.44,538.14,870.4Zm2.94,0c0-1.71-.45-2.43-1.11-2.43s-1.12.72-1.12,2.43.45,2.47,1.12,2.47S541.08,872.13,541.08,870.4Z"/><path class="cls-3" d="M542.58,870.4c0-2,.71-3,1.83-3s1.82,1,1.82,3-.71,3.06-1.82,3.06S542.58,872.44,542.58,870.4Zm2.94,0c0-1.71-.45-2.43-1.11-2.43s-1.12.72-1.12,2.43.45,2.47,1.12,2.47S545.52,872.13,545.52,870.4Z"/><rect class="cls-2" y="892.83" width="562" height="1"/><path class="cls-3" d="M27.74,916.94c0,1.85.54,3.7,2.14,4.64L29,922.73a4.51,4.51,0,0,1-2-2.7,5.16,5.16,0,0,1-2,3L24,921.83a5.58,5.58,0,0,0,2.19-4.89v-.54H24.43v-1.28h4.92v1.28H27.74ZM30,914.19h1.48v10.36H30v-5.49h-1.4v-1.28H30Zm3.73-.19v11h-1.5V914Z"/><path class="cls-3" d="M45.26,919.38v1.26h-10v-1.26h4.18v-1h-3v-3.91H44v3.91h-3v1Zm-8.88,2.06h7.68v3.63H42.47V922.7H36.38Zm1.68-4.33h4.38v-1.43H38.06Z"/><path class="cls-3" d="M507,921.92c1.84-1.61,2.69-2.77,2.69-3.78a1,1,0,0,0-1.08-1.16,1.63,1.63,0,0,0-1.22.68l-.42-.42a2.23,2.23,0,0,1,1.72-.86,1.61,1.61,0,0,1,1.71,1.73c0,1.17-.92,2.36-2.3,3.67.31,0,.67-.06,1-.06h1.63v.63H507Z"/><path class="cls-3" d="M511.49,919.4c0-2,.71-3,1.83-3s1.82,1,1.82,3-.71,3.06-1.82,3.06S511.49,921.44,511.49,919.4Zm2.94,0c0-1.71-.45-2.43-1.11-2.43s-1.12.72-1.12,2.43.45,2.47,1.12,2.47S514.43,921.13,514.43,919.4Z"/><path class="cls-3" d="M516.24,921.74h1.3v-4.37h-1v-.46a3.93,3.93,0,0,0,1.22-.42h.56v5.25h1.18v.61h-3.22Z"/><path class="cls-3" d="M520.34,920.9a1.87,1.87,0,0,1,1.08-1.62v0a1.62,1.62,0,0,1-.79-1.35,1.61,1.61,0,0,1,3.21.06,1.92,1.92,0,0,1-.78,1.41v0a1.72,1.72,0,0,1,1,1.54,1.65,1.65,0,0,1-1.84,1.52A1.68,1.68,0,0,1,520.34,920.9Zm3,0c0-.78-.72-1.08-1.55-1.42a1.61,1.61,0,0,0-.8,1.33,1.12,1.12,0,0,0,1.22,1.08A1,1,0,0,0,523.35,920.92Zm-.13-2.93a1,1,0,0,0-1-1,.9.9,0,0,0-.93.95c0,.7.63,1,1.32,1.28A1.57,1.57,0,0,0,523.22,918Z"/><path class="cls-3" d="M525,921.9a.53.53,0,1,1,1.06,0,.53.53,0,1,1-1.06,0Z"/><path class="cls-3" d="M527,919.4c0-2,.71-3,1.83-3s1.83,1,1.83,3-.72,3.06-1.83,3.06S527,921.44,527,919.4Zm2.94,0c0-1.71-.44-2.43-1.11-2.43s-1.12.72-1.12,2.43.45,2.47,1.12,2.47S530,921.13,530,919.4Z"/><path class="cls-3" d="M531.47,919.4c0-2,.71-3,1.83-3s1.83,1,1.83,3-.71,3.06-1.83,3.06S531.47,921.44,531.47,919.4Zm2.95,0c0-1.71-.45-2.43-1.12-2.43s-1.12.72-1.12,2.43.45,2.47,1.12,2.47S534.42,921.13,534.42,919.4Z"/><path class="cls-3" d="M536.1,921.9a.53.53,0,1,1,1.06,0,.53.53,0,1,1-1.06,0Z"/><path class="cls-3" d="M538.14,919.4c0-2,.71-3,1.83-3s1.82,1,1.82,3-.71,3.06-1.82,3.06S538.14,921.44,538.14,919.4Zm2.94,0c0-1.71-.45-2.43-1.11-2.43s-1.12.72-1.12,2.43.45,2.47,1.12,2.47S541.08,921.13,541.08,919.4Z"/><path class="cls-3" d="M542.58,919.4c0-2,.71-3,1.83-3s1.82,1,1.82,3-.71,3.06-1.82,3.06S542.58,921.44,542.58,919.4Zm2.94,0c0-1.71-.45-2.43-1.11-2.43s-1.12.72-1.12,2.43.45,2.47,1.12,2.47S545.52,921.13,545.52,919.4Z"/><rect class="cls-2" y="941.83" width="562" height="1"/><rect class="cls-1" y="942.83" width="562" height="48"/><path class="cls-3" d="M27.74,965.94c0,1.85.54,3.7,2.14,4.64L29,971.73a4.51,4.51,0,0,1-2-2.7,5.16,5.16,0,0,1-2,3L24,970.83a5.58,5.58,0,0,0,2.19-4.89v-.54H24.43v-1.28h4.92v1.28H27.74ZM30,963.19h1.48v10.36H30v-5.49h-1.4v-1.28H30Zm3.73-.19v11h-1.5V963Z"/><path class="cls-3" d="M45.26,968.38v1.26h-10v-1.26h4.18v-1h-3v-3.91H44v3.91h-3v1Zm-8.88,2.06h7.68v3.63H42.47V971.7H36.38Zm1.68-4.33h4.38v-1.43H38.06Z"/><path class="cls-3" d="M507,970.92c1.84-1.61,2.69-2.77,2.69-3.78a1,1,0,0,0-1.08-1.16,1.63,1.63,0,0,0-1.22.68l-.42-.42a2.23,2.23,0,0,1,1.72-.86,1.61,1.61,0,0,1,1.71,1.73c0,1.17-.92,2.36-2.3,3.67.31,0,.67-.06,1-.06h1.63v.63H507Z"/><path class="cls-3" d="M511.49,968.4c0-2,.71-3,1.83-3s1.82,1,1.82,3-.71,3.06-1.82,3.06S511.49,970.44,511.49,968.4Zm2.94,0c0-1.71-.45-2.43-1.11-2.43s-1.12.72-1.12,2.43.45,2.47,1.12,2.47S514.43,970.13,514.43,968.4Z"/><path class="cls-3" d="M516.24,970.74h1.3v-4.37h-1v-.46a3.93,3.93,0,0,0,1.22-.42h.56v5.25h1.18v.61h-3.22Z"/><path class="cls-3" d="M520.34,969.9a1.87,1.87,0,0,1,1.08-1.62v0a1.62,1.62,0,0,1-.79-1.35,1.61,1.61,0,0,1,3.21.06,1.92,1.92,0,0,1-.78,1.41v0a1.72,1.72,0,0,1,1,1.54,1.65,1.65,0,0,1-1.84,1.52A1.68,1.68,0,0,1,520.34,969.9Zm3,0c0-.78-.72-1.08-1.55-1.42a1.61,1.61,0,0,0-.8,1.33,1.12,1.12,0,0,0,1.22,1.08A1,1,0,0,0,523.35,969.92Zm-.13-2.93a1,1,0,0,0-1-1,.9.9,0,0,0-.93.95c0,.7.63,1,1.32,1.28A1.57,1.57,0,0,0,523.22,967Z"/><path class="cls-3" d="M525,970.9a.53.53,0,1,1,1.06,0,.53.53,0,1,1-1.06,0Z"/><path class="cls-3" d="M527,968.4c0-2,.71-3,1.83-3s1.83,1,1.83,3-.72,3.06-1.83,3.06S527,970.44,527,968.4Zm2.94,0c0-1.71-.44-2.43-1.11-2.43s-1.12.72-1.12,2.43.45,2.47,1.12,2.47S530,970.13,530,968.4Z"/><path class="cls-3" d="M531.47,968.4c0-2,.71-3,1.83-3s1.83,1,1.83,3-.71,3.06-1.83,3.06S531.47,970.44,531.47,968.4Zm2.95,0c0-1.71-.45-2.43-1.12-2.43s-1.12.72-1.12,2.43.45,2.47,1.12,2.47S534.42,970.13,534.42,968.4Z"/><path class="cls-3" d="M536.1,970.9a.53.53,0,1,1,1.06,0,.53.53,0,1,1-1.06,0Z"/><path class="cls-3" d="M538.14,968.4c0-2,.71-3,1.83-3s1.82,1,1.82,3-.71,3.06-1.82,3.06S538.14,970.44,538.14,968.4Zm2.94,0c0-1.71-.45-2.43-1.11-2.43s-1.12.72-1.12,2.43.45,2.47,1.12,2.47S541.08,970.13,541.08,968.4Z"/><path class="cls-3" d="M542.58,968.4c0-2,.71-3,1.83-3s1.82,1,1.82,3-.71,3.06-1.82,3.06S542.58,970.44,542.58,968.4Zm2.94,0c0-1.71-.45-2.43-1.11-2.43s-1.12.72-1.12,2.43.45,2.47,1.12,2.47S545.52,970.13,545.52,968.4Z"/><rect class="cls-2" y="990.83" width="562" height="1"/><path class="cls-3" d="M27.74,1014.94c0,1.85.54,3.7,2.14,4.64l-.93,1.15a4.51,4.51,0,0,1-2-2.7,5.16,5.16,0,0,1-2,3l-.94-1.17a5.58,5.58,0,0,0,2.19-4.89v-.54H24.43v-1.28h4.92v1.28H27.74Zm2.24-2.75h1.48v10.36H30v-5.49h-1.4v-1.28H30Zm3.73-.19v11h-1.5v-11Z"/><path class="cls-3" d="M45.26,1017.38v1.26h-10v-1.26h4.18v-1h-3v-3.91H44v3.91h-3v1Zm-8.88,2.06h7.68v3.63H42.47v-2.37H36.38Zm1.68-4.33h4.38v-1.43H38.06Z"/><path class="cls-3" d="M507,1019.92c1.84-1.61,2.69-2.77,2.69-3.78a1,1,0,0,0-1.08-1.16,1.63,1.63,0,0,0-1.22.68l-.42-.42a2.23,2.23,0,0,1,1.72-.86,1.61,1.61,0,0,1,1.71,1.73c0,1.17-.92,2.36-2.3,3.67.31,0,.67-.06,1-.06h1.63v.63H507Z"/><path class="cls-3" d="M511.49,1017.4c0-2,.71-3,1.83-3s1.82,1,1.82,3-.71,3.06-1.82,3.06S511.49,1019.44,511.49,1017.4Zm2.94,0c0-1.71-.45-2.43-1.11-2.43s-1.12.72-1.12,2.43.45,2.47,1.12,2.47S514.43,1019.13,514.43,1017.4Z"/><path class="cls-3" d="M516.24,1019.74h1.3v-4.37h-1v-.46a3.93,3.93,0,0,0,1.22-.42h.56v5.25h1.18v.61h-3.22Z"/><path class="cls-3" d="M520.34,1018.9a1.87,1.87,0,0,1,1.08-1.62v0a1.62,1.62,0,0,1-.79-1.35,1.61,1.61,0,0,1,3.21.06,1.92,1.92,0,0,1-.78,1.41v0a1.72,1.72,0,0,1,1,1.54,1.65,1.65,0,0,1-1.84,1.52A1.68,1.68,0,0,1,520.34,1018.9Zm3,0c0-.78-.72-1.08-1.55-1.42a1.61,1.61,0,0,0-.8,1.33,1.12,1.12,0,0,0,1.22,1.08A1,1,0,0,0,523.35,1018.92Zm-.13-2.93a1,1,0,0,0-1-1,.9.9,0,0,0-.93.95c0,.7.63,1,1.32,1.28A1.57,1.57,0,0,0,523.22,1016Z"/><path class="cls-3" d="M525,1019.9a.53.53,0,1,1,1.06,0,.53.53,0,1,1-1.06,0Z"/><path class="cls-3" d="M527,1017.4c0-2,.71-3,1.83-3s1.83,1,1.83,3-.72,3.06-1.83,3.06S527,1019.44,527,1017.4Zm2.94,0c0-1.71-.44-2.43-1.11-2.43s-1.12.72-1.12,2.43.45,2.47,1.12,2.47S530,1019.13,530,1017.4Z"/><path class="cls-3" d="M531.47,1017.4c0-2,.71-3,1.83-3s1.83,1,1.83,3-.71,3.06-1.83,3.06S531.47,1019.44,531.47,1017.4Zm2.95,0c0-1.71-.45-2.43-1.12-2.43s-1.12.72-1.12,2.43.45,2.47,1.12,2.47S534.42,1019.13,534.42,1017.4Z"/><path class="cls-3" d="M536.1,1019.9a.53.53,0,1,1,1.06,0,.53.53,0,1,1-1.06,0Z"/><path class="cls-3" d="M538.14,1017.4c0-2,.71-3,1.83-3s1.82,1,1.82,3-.71,3.06-1.82,3.06S538.14,1019.44,538.14,1017.4Zm2.94,0c0-1.71-.45-2.43-1.11-2.43s-1.12.72-1.12,2.43.45,2.47,1.12,2.47S541.08,1019.13,541.08,1017.4Z"/><path class="cls-3" d="M542.58,1017.4c0-2,.71-3,1.83-3s1.82,1,1.82,3-.71,3.06-1.82,3.06S542.58,1019.44,542.58,1017.4Zm2.94,0c0-1.71-.45-2.43-1.11-2.43s-1.12.72-1.12,2.43.45,2.47,1.12,2.47S545.52,1019.13,545.52,1017.4Z"/><rect class="cls-2" y="1039.83" width="562" height="1"/><rect class="cls-1" y="1040.83" width="562" height="48"/><path class="cls-3" d="M27.74,1063.94c0,1.85.54,3.7,2.14,4.64l-.93,1.15a4.51,4.51,0,0,1-2-2.7,5.16,5.16,0,0,1-2,3l-.94-1.17a5.58,5.58,0,0,0,2.19-4.89v-.54H24.43v-1.28h4.92v1.28H27.74Zm2.24-2.75h1.48v10.36H30v-5.49h-1.4v-1.28H30Zm3.73-.19v11h-1.5v-11Z"/><path class="cls-3" d="M45.26,1066.38v1.26h-10v-1.26h4.18v-1h-3v-3.91H44v3.91h-3v1Zm-8.88,2.06h7.68v3.63H42.47v-2.37H36.38Zm1.68-4.33h4.38v-1.43H38.06Z"/><rect class="cls-2" y="354.83" width="562" height="1"/></g></g></svg>